<svg width="1600" height="1604" viewBox="0 0 1600 1604" fill="none" xmlns="http://www.w3.org/2000/svg">
<path d="M155.657 816.973C153.677 814.993 152.687 814.003 152.316 812.861C151.989 811.857 151.989 810.776 152.316 809.771C152.687 808.63 153.677 807.64 155.657 805.66L368.784 592.532C370.764 590.552 371.754 589.562 372.896 589.191C373.9 588.865 374.982 588.865 375.986 589.191C377.128 589.562 378.118 590.552 380.098 592.532L795.125 1007.56L570.684 1232L155.657 816.973Z" fill="#84BEEB"/>
<path d="M1140.35 911.839C1138.37 913.819 1137.38 914.809 1136.24 915.18C1135.24 915.506 1134.16 915.506 1133.15 915.18C1132.01 914.809 1131.02 913.819 1129.04 911.839L915.777 698.575C913.796 696.595 912.806 695.605 912.435 694.463C912.109 693.459 912.109 692.377 912.435 691.373C912.806 690.232 913.796 689.241 915.777 687.261L1185.18 417.853C1187.16 415.873 1188.15 414.883 1189.3 414.512C1190.3 414.186 1191.38 414.186 1192.39 414.512C1193.53 414.883 1194.52 415.873 1196.5 417.853L1409.76 631.117C1411.74 633.097 1412.73 634.087 1413.1 635.229C1413.43 636.233 1413.43 637.315 1413.1 638.319C1412.73 639.461 1411.74 640.451 1409.76 642.431L1140.35 911.839Z" fill="#84BEEB"/>
<path d="M663.98 265.441L888.421 41.0002L1436.42 589.003C1441.18 593.755 1443.55 596.131 1444.44 598.871C1445.23 601.281 1445.23 603.878 1444.44 606.288C1443.55 609.028 1441.18 611.404 1436.42 616.156L1231.22 821.364C1229.24 823.344 1228.25 824.334 1227.1 824.705C1226.1 825.031 1225.02 825.031 1224.01 824.705C1222.87 824.334 1221.88 823.344 1219.9 821.364L663.98 265.441Z" fill="#84BEEB"/>
<path d="M570.685 49C570.685 46.1997 570.685 44.7996 571.23 43.73C571.709 42.7892 572.474 42.0243 573.415 41.545C574.484 41 575.884 41 578.685 41H888.285V1224C888.285 1226.8 888.285 1228.2 887.74 1229.27C887.261 1230.21 886.496 1230.98 885.555 1231.46C884.485 1232 883.085 1232 880.285 1232H570.685V49Z" fill="#84BEEB"/>
<path d="M659.017 122.385C659.017 119.096 661.683 116.43 664.972 116.43C668.261 116.43 670.927 119.096 670.927 122.385V204.48C670.927 208.401 670.927 210.361 670.164 211.858C669.493 213.175 668.422 214.246 667.105 214.917C665.608 215.68 663.647 215.68 659.727 215.68H659.017V122.385Z" fill="#F4F4F4"/>
<path d="M584.579 209.725C584.579 206.436 587.245 203.77 590.534 203.77H659.017V215.68H590.534C587.245 215.68 584.579 213.013 584.579 209.725Z" fill="#F4F4F4"/>
<path d="M978.146 156.527L985.164 149.509C987.49 147.184 991.26 147.184 993.586 149.509C995.911 151.835 995.911 155.605 993.586 157.931L986.568 164.949L978.146 156.527Z" fill="#F4F4F4"/>
<path d="M912.346 107.228C910.02 104.903 910.02 101.132 912.346 98.8068C914.671 96.4812 918.442 96.4812 920.767 98.8068L986.737 164.776L986.235 165.278C983.463 168.051 982.077 169.437 980.478 169.956C979.072 170.413 977.558 170.413 976.152 169.956C974.554 169.437 973.168 168.051 970.396 165.278L912.346 107.228Z" fill="#F4F4F4"/>
<rect x="580.609" y="78.7148" width="307.675" height="23.82" fill="#425D8C"/>
<rect x="179.639" y="811.171" width="277.9" height="23.82" transform="rotate(-45 179.639 811.171)" fill="#6AA0FF"/>
<rect x="1132.43" y="895.504" width="277.9" height="23.82" transform="rotate(-135 1132.43 895.504)" fill="#6AA0FF"/>
<rect x="871.412" y="85.7075" width="33.745" height="23.82" transform="rotate(-45 871.412 85.7075)" fill="#425D8C"/>
<rect x="870.419" y="116.43" width="9.92501" height="99.2501" fill="#425D8C"/>
<rect x="850.57" y="116.43" width="9.92501" height="59.5501" fill="#425D8C"/>
<rect x="850.57" y="175.979" width="19.85" height="9.92501" fill="#425D8C"/>
<path d="M184.8 1604C161.333 1604 140.667 1600.13 122.8 1592.4V1540.4C131.067 1544.4 140 1547.6 149.6 1550C159.2 1552.4 168.267 1553.6 176.8 1553.6C189.6 1553.6 198.8 1550.67 204.4 1544.8C210.267 1538.67 213.2 1529.07 213.2 1516V1356H138.8V1308H270.8V1522C270.8 1550.53 264 1571.33 250.4 1584.4C236.8 1597.47 214.933 1604 184.8 1604ZM421.2 1604C387.6 1604 362.667 1595.87 346.4 1579.6C330.133 1563.07 322 1537.87 322 1504V1488C322 1453.6 328.667 1428.4 342 1412.4C355.6 1396.13 376.933 1388 406 1388C435.067 1388 456.267 1396.13 469.6 1412.4C483.2 1428.4 490 1453.6 490 1488V1520.4H349.2V1476.4H446L436.4 1490.4C436.4 1469.87 434.133 1455.6 429.6 1447.6C425.067 1439.33 417.333 1435.2 406.4 1435.2C395.467 1435.2 387.733 1439.33 383.2 1447.6C378.667 1455.6 376.4 1469.87 376.4 1490.4V1501.6C376.4 1517.07 377.6 1528.8 380 1536.8C382.667 1544.53 387.467 1549.87 394.4 1552.8C401.6 1555.47 412.133 1556.8 426 1556.8C433.733 1556.8 441.467 1556.4 449.2 1555.6C456.933 1554.8 466.533 1553.07 478 1550.4V1597.6C469.2 1599.47 459.867 1600.93 450 1602C440.133 1603.33 430.533 1604 421.2 1604ZM612.8 1604C583.2 1604 560.267 1597.87 544 1585.6C528 1573.33 520 1555.87 520 1533.2C520 1510.8 528 1493.73 544 1482C560.267 1470 583.733 1464 614.4 1464H656.4V1508H615.2C588.533 1508 575.2 1516.27 575.2 1532.8C575.2 1541.07 578.267 1547.47 584.4 1552C590.533 1556.27 599.2 1558.4 610.4 1558.4C617.067 1558.4 622.933 1557.6 628 1556C633.333 1554.13 638.4 1551.33 643.2 1547.6L628.8 1576.8V1465.6C628.8 1456.27 628.133 1449.47 626.8 1445.2C625.467 1440.67 622.533 1437.73 618 1436.4C613.733 1435.07 607.067 1434.4 598 1434.4C591.333 1434.4 584.933 1434.67 578.8 1435.2C572.667 1435.73 565.867 1436.8 558.4 1438.4C551.2 1439.73 542.4 1441.87 532 1444.8V1398.4C541.6 1394.93 552.533 1392.4 564.8 1390.8C577.067 1388.93 590.133 1388 604 1388C624.533 1388 640.533 1390.27 652 1394.8C663.733 1399.33 672 1407.2 676.8 1418.4C681.6 1429.33 684 1444.53 684 1464V1591.2C674.933 1595.2 664 1598.27 651.2 1600.4C638.4 1602.8 625.6 1604 612.8 1604ZM724.4 1400.8C735.333 1396.27 747.067 1393.07 759.6 1391.2C772.133 1389.07 786.267 1388 802 1388C823.867 1388 840.933 1390.27 853.2 1394.8C865.733 1399.33 874.533 1407.2 879.6 1418.4C884.933 1429.33 887.6 1444.53 887.6 1464V1600H832.4V1467.2C832.4 1459.2 831.467 1452.93 829.6 1448.4C827.733 1443.87 824.533 1440.67 820 1438.8C815.733 1436.93 809.733 1436 802 1436C797.733 1436 793.867 1436.4 790.4 1437.2C786.933 1437.73 782.933 1438.93 778.4 1440.8C773.867 1442.67 767.867 1445.6 760.4 1449.6L779.6 1415.2V1600H724.4V1400.8Z" fill="#5472FF"/>
<path d="M999.6 1604C987.333 1604 975.733 1603.07 964.8 1601.2C953.867 1599.6 942.933 1597.07 932 1593.6V1545.6C944 1549.07 955.333 1551.73 966 1553.6C976.667 1555.2 987.067 1556 997.2 1556C1009.2 1556 1017.6 1554.8 1022.4 1552.4C1027.47 1549.73 1030 1545.47 1030 1539.6C1030 1536.67 1028.8 1534 1026.4 1531.6C1024.27 1529.2 1020.67 1526.93 1015.6 1524.8C1010.53 1522.67 1004 1520.67 996 1518.8C971.2 1512.67 953.333 1504.27 942.4 1493.6C931.467 1482.67 926 1467.87 926 1449.2C926 1427.87 932.933 1412.4 946.8 1402.8C960.933 1392.93 983.2 1388 1013.6 1388C1024.53 1388 1035.2 1388.67 1045.6 1390C1056 1391.33 1068.13 1393.6 1082 1396.8V1464H1026.8V1408L1050.4 1438C1042.13 1437.2 1035.6 1436.67 1030.8 1436.4C1026 1436.13 1021.73 1436 1018 1436C1005.47 1436 996.267 1437.33 990.4 1440C984.8 1442.4 982 1446.4 982 1452C982 1455.47 983.333 1458.8 986 1462C988.667 1464.93 992.8 1467.73 998.4 1470.4C1004.27 1473.07 1011.87 1475.73 1021.2 1478.4C1044.93 1485.07 1061.6 1493.33 1071.2 1503.2C1081.07 1512.8 1086 1526.13 1086 1543.2C1086 1564.27 1079.07 1579.73 1065.2 1589.6C1051.33 1599.2 1029.47 1604 999.6 1604ZM1199.6 1600V1439.2H1135.6V1392H1255.6V1600H1199.6ZM1222 1368C1210.27 1368 1200.93 1364.8 1194 1358.4C1187.07 1352 1183.6 1343.2 1183.6 1332C1183.6 1320.8 1187.07 1312 1194 1305.6C1200.93 1299.2 1210.13 1296 1221.6 1296C1233.33 1296 1242.53 1299.2 1249.2 1305.6C1256.13 1312 1259.6 1320.8 1259.6 1332C1259.6 1343.2 1256.13 1352 1249.2 1358.4C1242.53 1364.8 1233.47 1368 1222 1368ZM1324.4 1400.8C1335.33 1396.27 1347.07 1393.07 1359.6 1391.2C1372.13 1389.07 1386.27 1388 1402 1388C1423.87 1388 1440.93 1390.27 1453.2 1394.8C1465.73 1399.33 1474.53 1407.2 1479.6 1418.4C1484.93 1429.33 1487.6 1444.53 1487.6 1464V1600H1432.4V1467.2C1432.4 1459.2 1431.47 1452.93 1429.6 1448.4C1427.73 1443.87 1424.53 1440.67 1420 1438.8C1415.73 1436.93 1409.73 1436 1402 1436C1397.73 1436 1393.87 1436.4 1390.4 1437.2C1386.93 1437.73 1382.93 1438.93 1378.4 1440.8C1373.87 1442.67 1367.87 1445.6 1360.4 1449.6L1379.6 1415.2V1600H1324.4V1400.8Z" fill="#3659FF"/>
</svg>
