<svg width="683" height="154" viewBox="0 0 683 154" fill="none" xmlns="http://www.w3.org/2000/svg">
<path d="M31.4 154C19.6667 154 9.33333 152.067 0.400001 148.2V122.2C4.53333 124.2 9 125.8 13.8 127C18.6 128.2 23.1333 128.8 27.4 128.8C33.8 128.8 38.4 127.333 41.2 124.4C44.1333 121.333 45.6 116.533 45.6 110V30H8.4V6H74.4V113C74.4 127.267 71 137.667 64.2 144.2C57.4 150.733 46.4667 154 31.4 154ZM149.6 154C132.8 154 120.333 149.933 112.2 141.8C104.067 133.533 100 120.933 100 104V96C100 78.8 103.333 66.2 110 58.2C116.8 50.0667 127.467 46 142 46C156.533 46 167.133 50.0667 173.8 58.2C180.6 66.2 184 78.8 184 96V112.2H113.6V90.2H162L157.2 97.2C157.2 86.9333 156.067 79.8 153.8 75.8C151.533 71.6667 147.667 69.6 142.2 69.6C136.733 69.6 132.867 71.6667 130.6 75.8C128.333 79.8 127.2 86.9333 127.2 97.2V102.8C127.2 110.533 127.8 116.4 129 120.4C130.333 124.267 132.733 126.933 136.2 128.4C139.8 129.733 145.067 130.4 152 130.4C155.867 130.4 159.733 130.2 163.6 129.8C167.467 129.4 172.267 128.533 178 127.2V150.8C173.6 151.733 168.933 152.467 164 153C159.067 153.667 154.267 154 149.6 154ZM245.4 154C230.6 154 219.133 150.933 211 144.8C203 138.667 199 129.933 199 118.6C199 107.4 203 98.8667 211 93C219.133 87 230.867 84 246.2 84H267.2V106H246.6C233.267 106 226.6 110.133 226.6 118.4C226.6 122.533 228.133 125.733 231.2 128C234.267 130.133 238.6 131.2 244.2 131.2C247.533 131.2 250.467 130.8 253 130C255.667 129.067 258.2 127.667 260.6 125.8L253.4 140.4V84.8C253.4 80.1333 253.067 76.7333 252.4 74.6C251.733 72.3333 250.267 70.8667 248 70.2C245.867 69.5333 242.533 69.2 238 69.2C234.667 69.2 231.467 69.3333 228.4 69.6C225.333 69.8667 221.933 70.4 218.2 71.2C214.6 71.8667 210.2 72.9333 205 74.4V51.2C209.8 49.4667 215.267 48.2 221.4 47.4C227.533 46.4667 234.067 46 241 46C251.267 46 259.267 47.1333 265 49.4C270.867 51.6667 275 55.6 277.4 61.2C279.8 66.6667 281 74.2667 281 84V147.6C276.467 149.6 271 151.133 264.6 152.2C258.2 153.4 251.8 154 245.4 154ZM301.2 52.4C306.667 50.1333 312.533 48.5333 318.8 47.6C325.067 46.5333 332.133 46 340 46C350.933 46 359.467 47.1333 365.6 49.4C371.867 51.6667 376.267 55.6 378.8 61.2C381.467 66.6667 382.8 74.2667 382.8 84V152H355.2V85.6C355.2 81.6 354.733 78.4667 353.8 76.2C352.867 73.9333 351.267 72.3333 349 71.4C346.867 70.4667 343.867 70 340 70C337.867 70 335.933 70.2 334.2 70.6C332.467 70.8667 330.467 71.4667 328.2 72.4C325.933 73.3333 322.933 74.8 319.2 76.8L328.8 59.6V152H301.2V52.4Z" fill="#5472FF"/>
<path d="M438.8 154C432.667 154 426.867 153.533 421.4 152.6C415.933 151.8 410.467 150.533 405 148.8V124.8C411 126.533 416.667 127.867 422 128.8C427.333 129.6 432.533 130 437.6 130C443.6 130 447.8 129.4 450.2 128.2C452.733 126.867 454 124.733 454 121.8C454 120.333 453.4 119 452.2 117.8C451.133 116.6 449.333 115.467 446.8 114.4C444.267 113.333 441 112.333 437 111.4C424.6 108.333 415.667 104.133 410.2 98.8C404.733 93.3333 402 85.9333 402 76.6C402 65.9333 405.467 58.2 412.4 53.4C419.467 48.4667 430.6 46 445.8 46C451.267 46 456.6 46.3333 461.8 47C467 47.6667 473.067 48.8 480 50.4V84H452.4V56L464.2 71C460.067 70.6 456.8 70.3333 454.4 70.2C452 70.0667 449.867 70 448 70C441.733 70 437.133 70.6667 434.2 72C431.4 73.2 430 75.2 430 78C430 79.7333 430.667 81.4 432 83C433.333 84.4667 435.4 85.8667 438.2 87.2C441.133 88.5333 444.933 89.8667 449.6 91.2C461.467 94.5333 469.8 98.6667 474.6 103.6C479.533 108.4 482 115.067 482 123.6C482 134.133 478.533 141.867 471.6 146.8C464.667 151.6 453.733 154 438.8 154ZM538.8 152V71.6H506.8V48H566.8V152H538.8ZM550 36C544.133 36 539.467 34.4 536 31.2C532.533 28 530.8 23.6 530.8 18C530.8 12.4 532.533 7.99999 536 4.79999C539.467 1.59999 544.067 -1.00136e-05 549.8 -1.00136e-05C555.667 -1.00136e-05 560.267 1.59999 563.6 4.79999C567.067 7.99999 568.8 12.4 568.8 18C568.8 23.6 567.067 28 563.6 31.2C560.267 34.4 555.733 36 550 36ZM601.2 52.4C606.667 50.1333 612.533 48.5333 618.8 47.6C625.067 46.5333 632.133 46 640 46C650.933 46 659.467 47.1333 665.6 49.4C671.867 51.6667 676.267 55.6 678.8 61.2C681.467 66.6667 682.8 74.2667 682.8 84V152H655.2V85.6C655.2 81.6 654.733 78.4667 653.8 76.2C652.867 73.9333 651.267 72.3333 649 71.4C646.867 70.4667 643.867 70 640 70C637.867 70 635.933 70.2 634.2 70.6C632.467 70.8667 630.467 71.4667 628.2 72.4C625.933 73.3333 622.933 74.8 619.2 76.8L628.8 59.6V152H601.2V52.4Z" fill="#3659FF"/>
</svg>
