<svg width="3700" height="1300" viewBox="0 0 3700 1300" fill="none" xmlns="http://www.w3.org/2000/svg">
<path d="M42.6569 829.973C40.6768 827.993 39.6867 827.003 39.3158 825.861C38.9895 824.857 38.9895 823.776 39.3158 822.771C39.6867 821.63 40.6768 820.64 42.6569 818.66L255.784 605.532C257.764 603.552 258.754 602.562 259.896 602.191C260.9 601.865 261.982 601.865 262.986 602.191C264.128 602.562 265.118 603.552 267.098 605.532L682.125 1020.56L457.684 1245L42.6569 829.973Z" fill="#84BEEB"/>
<path d="M1027.35 924.839C1025.37 926.819 1024.38 927.809 1023.24 928.18C1022.24 928.506 1021.16 928.506 1020.15 928.18C1019.01 927.809 1018.02 926.819 1016.04 924.839L802.777 711.575C800.796 709.595 799.806 708.605 799.435 707.463C799.109 706.459 799.109 705.377 799.435 704.373C799.806 703.232 800.796 702.241 802.777 700.261L1072.18 430.853C1074.16 428.873 1075.15 427.883 1076.3 427.512C1077.3 427.186 1078.38 427.186 1079.39 427.512C1080.53 427.883 1081.52 428.873 1083.5 430.853L1296.76 644.117C1298.74 646.097 1299.73 647.087 1300.1 648.229C1300.43 649.233 1300.43 650.315 1300.1 651.319C1299.73 652.461 1298.74 653.451 1296.76 655.431L1027.35 924.839Z" fill="#84BEEB"/>
<path d="M550.98 278.441L775.421 54.0002L1323.42 602.003C1328.18 606.755 1330.55 609.131 1331.44 611.871C1332.23 614.282 1332.23 616.878 1331.44 619.288C1330.55 622.028 1328.18 624.404 1323.42 629.156L1118.22 834.364C1116.24 836.344 1115.25 837.334 1114.1 837.705C1113.1 838.031 1112.02 838.031 1111.01 837.705C1109.87 837.334 1108.88 836.344 1106.9 834.364L550.98 278.441Z" fill="#84BEEB"/>
<path d="M457.685 62C457.685 59.1997 457.685 57.7996 458.23 56.73C458.709 55.7892 459.474 55.0243 460.415 54.545C461.484 54 462.884 54 465.685 54H775.285V1237C775.285 1239.8 775.285 1241.2 774.74 1242.27C774.261 1243.21 773.496 1243.98 772.555 1244.46C771.485 1245 770.085 1245 767.285 1245H457.685V62Z" fill="#84BEEB"/>
<path d="M546.017 135.385C546.017 132.096 548.683 129.43 551.972 129.43V129.43C555.261 129.43 557.927 132.096 557.927 135.385V217.48C557.927 221.401 557.927 223.361 557.164 224.858C556.493 226.175 555.422 227.246 554.105 227.917C552.608 228.68 550.647 228.68 546.727 228.68H546.017V135.385Z" fill="#F4F4F4"/>
<path d="M471.579 222.725C471.579 219.436 474.245 216.77 477.534 216.77H546.017V228.68H477.534C474.245 228.68 471.579 226.013 471.579 222.725V222.725Z" fill="#F4F4F4"/>
<path d="M865.146 169.527L872.164 162.509C874.49 160.184 878.26 160.184 880.586 162.509V162.509C882.911 164.835 882.911 168.605 880.586 170.931L873.568 177.949L865.146 169.527Z" fill="#F4F4F4"/>
<path d="M799.346 120.228C797.02 117.903 797.02 114.132 799.346 111.807V111.807C801.671 109.481 805.442 109.481 807.767 111.807L873.737 177.776L873.235 178.278C870.463 181.051 869.077 182.437 867.478 182.956C866.072 183.413 864.558 183.413 863.152 182.956C861.554 182.437 860.168 181.051 857.396 178.278L799.346 120.228Z" fill="#F4F4F4"/>
<rect x="467.609" y="91.7148" width="307.675" height="23.82" fill="#425D8C"/>
<rect x="66.6387" y="824.171" width="277.9" height="23.82" transform="rotate(-45 66.6387 824.171)" fill="#6AA0FF"/>
<rect x="1019.43" y="908.504" width="277.9" height="23.82" transform="rotate(-135 1019.43 908.504)" fill="#6AA0FF"/>
<rect x="758.412" y="98.7075" width="33.745" height="23.82" transform="rotate(-45 758.412 98.7075)" fill="#425D8C"/>
<rect x="757.419" y="129.43" width="9.92501" height="99.2501" fill="#425D8C"/>
<rect x="737.57" y="129.43" width="9.92501" height="59.5501" fill="#425D8C"/>
<rect x="737.57" y="188.979" width="19.85" height="9.92501" fill="#425D8C"/>
<path d="M1578.2 885C1543 885 1512 879.2 1485.2 867.6V789.6C1497.6 795.6 1511 800.4 1525.4 804C1539.8 807.6 1553.4 809.4 1566.2 809.4C1585.4 809.4 1599.2 805 1607.6 796.2C1616.4 787 1620.8 772.6 1620.8 753V513H1509.2V441H1707.2V762C1707.2 804.8 1697 836 1676.6 855.6C1656.2 875.2 1623.4 885 1578.2 885ZM1932.8 885C1882.4 885 1845 872.8 1820.6 848.4C1796.2 823.6 1784 785.8 1784 735V711C1784 659.4 1794 621.6 1814 597.6C1834.4 573.2 1866.4 561 1910 561C1953.6 561 1985.4 573.2 2005.4 597.6C2025.8 621.6 2036 659.4 2036 711V759.6H1824.8V693.6H1970L1955.6 714.6C1955.6 683.8 1952.2 662.4 1945.4 650.4C1938.6 638 1927 631.8 1910.6 631.8C1894.2 631.8 1882.6 638 1875.8 650.4C1869 662.4 1865.6 683.8 1865.6 714.6V731.4C1865.6 754.6 1867.4 772.2 1871 784.2C1875 795.8 1882.2 803.8 1892.6 808.2C1903.4 812.2 1919.2 814.2 1940 814.2C1951.6 814.2 1963.2 813.6 1974.8 812.4C1986.4 811.2 2000.8 808.6 2018 804.6V875.4C2004.8 878.2 1990.8 880.4 1976 882C1961.2 884 1946.8 885 1932.8 885ZM2220.2 885C2175.8 885 2141.4 875.8 2117 857.4C2093 839 2081 812.8 2081 778.8C2081 745.2 2093 719.6 2117 702C2141.4 684 2176.6 675 2222.6 675H2285.6V741H2223.8C2183.8 741 2163.8 753.4 2163.8 778.2C2163.8 790.6 2168.4 800.2 2177.6 807C2186.8 813.4 2199.8 816.6 2216.6 816.6C2226.6 816.6 2235.4 815.4 2243 813C2251 810.2 2258.6 806 2265.8 800.4L2244.2 844.2V677.4C2244.2 663.4 2243.2 653.2 2241.2 646.8C2239.2 640 2234.8 635.6 2228 633.6C2221.6 631.6 2211.6 630.6 2198 630.6C2188 630.6 2178.4 631 2169.2 631.8C2160 632.6 2149.8 634.2 2138.6 636.6C2127.8 638.6 2114.6 641.8 2099 646.2V576.6C2113.4 571.4 2129.8 567.6 2148.2 565.2C2166.6 562.4 2186.2 561 2207 561C2237.8 561 2261.8 564.4 2279 571.2C2296.6 578 2309 589.8 2316.2 606.6C2323.4 623 2327 645.8 2327 675V865.8C2313.4 871.8 2297 876.4 2277.8 879.6C2258.6 883.2 2239.4 885 2220.2 885ZM2387.6 580.2C2404 573.4 2421.6 568.6 2440.4 565.8C2459.2 562.6 2480.4 561 2504 561C2536.8 561 2562.4 564.4 2580.8 571.2C2599.6 578 2612.8 589.8 2620.4 606.6C2628.4 623 2632.4 645.8 2632.4 675V879H2549.6V679.8C2549.6 667.8 2548.2 658.4 2545.4 651.6C2542.6 644.8 2537.8 640 2531 637.2C2524.6 634.4 2515.6 633 2504 633C2497.6 633 2491.8 633.6 2486.6 634.8C2481.4 635.6 2475.4 637.4 2468.6 640.2C2461.8 643 2452.8 647.4 2441.6 653.4L2470.4 601.8V879H2387.6V580.2Z" fill="#5472FF"/>
<path d="M2800.4 885C2782 885 2764.6 883.6 2748.2 880.8C2731.8 878.4 2715.4 874.6 2699 869.4V797.4C2717 802.6 2734 806.6 2750 809.4C2766 811.8 2781.6 813 2796.8 813C2814.8 813 2827.4 811.2 2834.6 807.6C2842.2 803.6 2846 797.2 2846 788.4C2846 784 2844.2 780 2840.6 776.4C2837.4 772.8 2832 769.4 2824.4 766.2C2816.8 763 2807 760 2795 757.2C2757.8 748 2731 735.4 2714.6 719.4C2698.2 703 2690 680.8 2690 652.8C2690 620.8 2700.4 597.6 2721.2 583.2C2742.4 568.4 2775.8 561 2821.4 561C2837.8 561 2853.8 562 2869.4 564C2885 566 2903.2 569.4 2924 574.2V675H2841.2V591L2876.6 636C2864.2 634.8 2854.4 634 2847.2 633.6C2840 633.2 2833.6 633 2828 633C2809.2 633 2795.4 635 2786.6 639C2778.2 642.6 2774 648.6 2774 657C2774 662.2 2776 667.2 2780 672C2784 676.4 2790.2 680.6 2798.6 684.6C2807.4 688.6 2818.8 692.6 2832.8 696.6C2868.4 706.6 2893.4 719 2907.8 733.8C2922.6 748.2 2930 768.2 2930 793.8C2930 825.4 2919.6 848.6 2898.8 863.4C2878 877.8 2845.2 885 2800.4 885ZM3100.4 879V637.8H3004.4V567H3184.4V879H3100.4ZM3134 531C3116.4 531 3102.4 526.2 3092 516.6C3081.6 507 3076.4 493.8 3076.4 477C3076.4 460.2 3081.6 447 3092 437.4C3102.4 427.8 3116.2 423 3133.4 423C3151 423 3164.8 427.8 3174.8 437.4C3185.2 447 3190.4 460.2 3190.4 477C3190.4 493.8 3185.2 507 3174.8 516.6C3164.8 526.2 3151.2 531 3134 531ZM3287.6 580.2C3304 573.4 3321.6 568.6 3340.4 565.8C3359.2 562.6 3380.4 561 3404 561C3436.8 561 3462.4 564.4 3480.8 571.2C3499.6 578 3512.8 589.8 3520.4 606.6C3528.4 623 3532.4 645.8 3532.4 675V879H3449.6V679.8C3449.6 667.8 3448.2 658.4 3445.4 651.6C3442.6 644.8 3437.8 640 3431 637.2C3424.6 634.4 3415.6 633 3404 633C3397.6 633 3391.8 633.6 3386.6 634.8C3381.4 635.6 3375.4 637.4 3368.6 640.2C3361.8 643 3352.8 647.4 3341.6 653.4L3370.4 601.8V879H3287.6V580.2Z" fill="#3659FF"/>
</svg>
