<svg width="1500" height="1500" viewBox="0 0 1500 1500" fill="none" xmlns="http://www.w3.org/2000/svg">
<path d="M5.65686 957.484C3.67677 955.504 2.68673 954.514 2.31579 953.372C1.9895 952.368 1.9895 951.286 2.31579 950.282C2.68673 949.14 3.67677 948.15 5.65685 946.17L253.314 698.513C255.294 696.533 256.284 695.543 257.426 695.172C258.43 694.846 259.511 694.846 260.516 695.172C261.657 695.543 262.647 696.533 264.627 698.513L744.376 1178.26L485.405 1437.23L5.65686 957.484Z" fill="#84BEEB"/>
<path d="M1141.85 1068.68C1139.87 1070.66 1138.88 1071.65 1137.73 1072.03C1136.73 1072.35 1135.65 1072.35 1134.64 1072.03C1133.5 1071.65 1132.51 1070.66 1130.53 1068.68L882.718 820.87C880.738 818.89 879.748 817.9 879.377 816.758C879.051 815.754 879.051 814.672 879.377 813.668C879.748 812.526 880.738 811.536 882.718 809.556L1195.31 496.96C1197.29 494.98 1198.28 493.99 1199.43 493.619C1200.43 493.293 1201.51 493.293 1202.52 493.619C1203.66 493.99 1204.65 494.98 1206.63 496.96L1454.44 744.774C1456.42 746.754 1457.41 747.744 1457.78 748.886C1458.11 749.89 1458.11 750.972 1457.78 751.976C1457.41 753.118 1456.42 754.108 1454.44 756.088L1141.85 1068.68Z" fill="#84BEEB"/>
<path d="M593.053 321.971L852.024 63.0001L1486.42 697.4C1491.18 702.152 1493.55 704.528 1494.44 707.268C1495.23 709.678 1495.23 712.274 1494.44 714.685C1493.55 717.424 1491.18 719.801 1486.42 724.553L1246.69 964.29C1244.71 966.27 1243.72 967.26 1242.57 967.631C1241.57 967.957 1240.49 967.957 1239.48 967.631C1238.34 967.26 1237.35 966.27 1235.37 964.29L593.053 321.971Z" fill="#84BEEB"/>
<path d="M485.405 71C485.405 68.1997 485.405 66.7996 485.95 65.73C486.43 64.7892 487.195 64.0243 488.135 63.545C489.205 63 490.605 63 493.405 63H851.867V1429.23C851.867 1432.03 851.867 1433.43 851.322 1434.5C850.843 1435.44 850.078 1436.21 849.137 1436.69C848.068 1437.23 846.668 1437.23 843.867 1437.23H485.405V71Z" fill="#84BEEB"/>
<path d="M587.327 156.906C587.327 153.111 590.403 150.035 594.198 150.035V150.035C597.993 150.035 601.069 153.111 601.069 156.906V253.354C601.069 257.274 601.069 259.235 600.307 260.732C599.635 262.049 598.565 263.12 597.247 263.791C595.75 264.554 593.79 264.554 589.869 264.554H587.327V156.906Z" fill="#F4F4F4"/>
<path d="M501.438 257.683C501.438 253.888 504.514 250.812 508.309 250.812H587.327V264.554H508.309C504.514 264.554 501.438 261.478 501.438 257.683V257.683Z" fill="#F4F4F4"/>
<path d="M955.553 196.301L963.651 188.203C966.334 185.52 970.685 185.52 973.368 188.203V188.203C976.051 190.886 976.051 195.237 973.368 197.92L965.27 206.018L955.553 196.301Z" fill="#F4F4F4"/>
<path d="M879.629 139.417C876.946 136.733 876.946 132.383 879.629 129.699V129.699C882.313 127.016 886.663 127.016 889.347 129.699L965.465 205.818L963.668 207.616C960.896 210.388 959.51 211.774 957.911 212.293C956.505 212.75 954.991 212.75 953.585 212.293C951.987 211.774 950.601 210.388 947.829 207.616L879.629 139.417Z" fill="#F4F4F4"/>
<rect x="496.857" y="106.517" width="355.01" height="27.4846" fill="#425D8C"/>
<rect x="34.1987" y="951.659" width="320.654" height="27.4846" transform="rotate(-45 34.1987 951.659)" fill="#6AA0FF"/>
<rect x="1133.57" y="1048.97" width="320.654" height="27.4846" transform="rotate(-135 1133.57 1048.97)" fill="#6AA0FF"/>
<rect x="832.398" y="114.586" width="38.9366" height="27.4846" transform="rotate(-45 832.398 114.586)" fill="#425D8C"/>
<rect x="831.253" y="150.035" width="11.4519" height="114.519" fill="#425D8C"/>
<rect x="808.35" y="150.035" width="11.4519" height="68.7116" fill="#425D8C"/>
<rect x="808.35" y="218.746" width="22.9039" height="11.4519" fill="#425D8C"/>
</svg>
